Coordinates
version=1
nRows=11
nColumns=40
inDegrees=yes

Units are S.I. units (second, meters, Newtons, ...)
If the header above contains a line with 'inDegrees', this indicates whether rotational values are in degrees (yes) or radians (no).

endheader
time	pelvis_tilt	pelvis_list	pelvis_rotation	pelvis_tx	pelvis_ty	pelvis_tz	hip_flexion_r	hip_adduction_r	hip_rotation_r	knee_angle_r	knee_angle_r_beta	ankle_angle_r	subtalar_angle_r	mtp_angle_r	hip_flexion_l	hip_adduction_l	hip_rotation_l	knee_angle_l	knee_angle_l_beta	ankle_angle_l	subtalar_angle_l	mtp_angle_l	lumbar_extension	lumbar_bending	lumbar_rotation	arm_flex_r	arm_add_r	arm_rot_r	elbow_flex_r	pro_sup_r	wrist_flex_r	wrist_dev_r	arm_flex_l	arm_add_l	arm_rot_l	elbow_flex_l	pro_sup_l	wrist_flex_l	wrist_dev_l
      2.43500000	      4.66040838	     -5.30087250	     -4.44356960	     -0.34206769	      0.95749156	     -1.04583619	     43.03725825	      2.33497447	     -7.18028519	     23.01472196	      0.40168267	    -14.22217088	      0.00000000	      0.00000000	     27.22117730	     -4.83176511	     -7.62166722	     57.78611211	      1.00855792	     13.71244818	      0.00000000	      0.00000000	    -18.63165288	      2.87450059	      7.91560519	     77.42137394	    -29.54735283	     39.38447971	     49.19358394	     82.55265915	      0.00000000	      0.00000000	     79.78322836	    -31.37171438	     48.07492720	     40.60921833	     81.93939855	      0.00000000	      0.00000000
      2.44000000	      4.69268390	     -5.26158501	     -4.47154889	     -0.34226736	      0.95667859	     -1.04591085	     43.08750950	      2.30799716	     -7.22204772	     23.08620092	      0.40293022	    -14.20481629	      0.00000000	      0.00000000	     27.30715468	     -4.81411965	     -7.67475394	     58.03760950	      1.01294738	     13.85921941	      0.00000000	      0.00000000	    -18.68951226	      2.81893149	      8.02271725	     77.47632881	    -29.62997254	     39.33732865	     49.22213639	     82.67039052	      0.00000000	      0.00000000	     79.83119431	    -31.26559425	     47.91519567	     40.64683979	     82.04404296	      0.00000000	      0.00000000
      2.44500000	      4.72535530	     -5.23088740	     -4.48820934	     -0.34263177	      0.95590670	     -1.04597060	     43.12483125	      2.28173153	     -7.23274818	     23.13236004	      0.40373585	    -14.20973295	      0.00000000	      0.00000000	     27.38546358	     -4.78899520	     -7.68687476	     58.22273758	      1.01617847	     13.91855392	      0.00000000	      0.00000000	    -18.75984618	      2.78669082	      8.04158115	     77.58385217	    -29.59651283	     39.40762451	     49.21922763	     82.53369223	      0.00000000	      0.00000000	     79.99356898	    -31.27981125	     48.08240245	     40.59611380	     81.99394099	      0.00000000	      0.00000000
      2.45000000	      4.74566138	     -5.16221079	     -4.46893381	     -0.34295223	      0.95511754	     -1.04606783	     43.19551903	      2.19147081	     -7.30048237	     23.21502829	      0.40517868	    -14.17147277	      0.00000000	      0.00000000	     27.47285306	     -4.71290449	     -7.70027810	     58.38666316	      1.01903951	     14.02969631	      0.00000000	      0.00000000	    -18.81988075	      2.69931439	      8.02173035	     77.66996490	    -29.64206319	     39.56790573	     49.29988265	     81.77335928	      0.00000000	      0.00000000	     80.27243893	    -31.27107173	     48.55862366	     40.49999053	     81.30346242	      0.00000000	      0.00000000
      2.45500000	      4.76787970	     -5.20926777	     -4.52123174	     -0.34310448	      0.95437671	     -1.04600640	     43.19404162	      2.26924646	     -7.31922582	     23.18600259	      0.40467209	    -14.16715429	      0.00000000	      0.00000000	     27.55541957	     -4.82459770	     -7.76751910	     58.61106574	      1.02295608	     14.07181863	      0.00000000	      0.00000000	    -18.86259075	      2.74636152	      8.10700599	     77.72383299	    -29.60874096	     39.50696320	     49.28916066	     82.57489492	      0.00000000	      0.00000000	     80.22218893	    -31.21131495	     48.09481150	     40.46776682	     81.97316440	      0.00000000	      0.00000000
      2.46000000	      4.77441723	     -5.22034497	     -4.47759196	     -0.34351503	      0.95357220	     -1.04611643	     43.24253449	      2.24585197	     -7.36918354	     23.17771562	      0.40452745	    -14.18140404	      0.00000000	      0.00000000	     27.68687037	     -4.82605201	     -7.71681367	     58.82200477	      1.02663766	     14.18530966	      0.00000000	      0.00000000	    -18.91405875	      2.77615593	      8.03460118	     77.84710486	    -29.51396084	     39.60425287	     49.22593271	     82.59294701	      0.00000000	      0.00000000	     80.35955420	    -31.25846699	     48.14773913	     40.43036483	     81.99645609	      0.00000000	      0.00000000
      2.46500000	      4.83716884	     -5.17646935	     -4.49323406	     -0.34387277	      0.95290267	     -1.04617401	     43.25052981	      2.21081713	     -7.35047911	     23.21682097	      0.40520997	    -14.16047499	      0.00000000	      0.00000000	     27.72643993	     -4.79238761	     -7.75187617	     58.98771604	      1.02952986	     14.21677910	      0.00000000	      0.00000000	    -19.01298879	      2.72028562	      8.05936058	     77.97249944	    -29.53237153	     39.75963884	     49.21524238	     82.64537589	      0.00000000	      0.00000000	     80.42592870	    -31.21256247	     48.01922284	     40.40008788	     82.01663997	      0.00000000	      0.00000000
      2.47000000	      4.80288905	     -5.20595283	     -4.45811756	     -0.34414289	      0.95202021	     -1.04630313	     43.33650157	      2.20370613	     -7.43234088	     23.21921999	      0.40525184	    -14.15906167	      0.00000000	      0.00000000	     27.89863307	     -4.82525082	     -7.71245113	     59.21256598	      1.03345423	     14.31535361	      0.00000000	      0.00000000	    -19.00590275	      2.77020594	      8.05873647	     78.01867676	    -29.53027178	     39.74130152	     49.26406422	     82.70449999	      0.00000000	      0.00000000	     80.54663472	    -31.18958062	     48.02778780	     40.35228789	     82.05370857	      0.00000000	      0.00000000
      2.47500000	      4.82362690	     -5.17699943	     -4.42692042	     -0.34456029	      0.95124482	     -1.04639249	     43.39159797	      2.14633894	     -7.48894290	     23.27386717	      0.40620561	    -14.06012396	      0.00000000	      0.00000000	     28.00384727	     -4.78995857	     -7.69626067	     59.39505142	      1.03663921	     14.38145763	      0.00000000	      0.00000000	    -19.06886086	      2.74627311	      8.04615828	     78.11564626	    -29.51856336	     39.79240673	     49.25652894	     82.54885402	      0.00000000	      0.00000000	     80.67013511	    -31.17655838	     48.09069042	     40.35789588	     81.98903684	      0.00000000	      0.00000000
      2.48000000	      4.87066318	     -5.32051793	     -4.48073700	     -0.34474803	      0.95043540	     -1.04627952	     43.36140826	      2.31655588	     -7.54950659	     23.22838552	      0.40541181	    -14.09727073	      0.00000000	      0.00000000	     28.11097084	     -5.00282561	     -7.71355135	     59.74526921	      1.04275166	     14.45840945	      0.00000000	      0.00000000	    -19.14695679	      2.89857005	      8.07017429	     78.54126678	    -29.48560134	     41.08062931	     49.14590253	     78.76160600	      0.00000000	      0.00000000	     80.81539843	    -31.30203464	     48.68866992	     40.37240081	     78.32596523	      0.00000000	      0.00000000
      2.48500000	      4.84910697	     -5.15806641	     -4.49601930	     -0.34512062	      0.94969346	     -1.04641653	     43.47101371	      2.18165256	     -7.39227318	     23.25670784	      0.40590613	    -14.07163985	      0.00000000	      0.00000000	     28.17378145	     -4.82383681	     -7.77571145	     59.75421428	      1.04290778	     14.59448276	      0.00000000	      0.00000000	    -19.15346576	      2.71341868	      8.09882049	     78.31186483	    -29.46626202	     39.99091943	     49.25122921	     82.71913920	      0.00000000	      0.00000000	     80.84612053	    -31.17506191	     47.96291215	     40.27580747	     82.06947539	      0.00000000	      0.00000000
